<svg xmlns="http://www.w3.org/2000/svg" viewBox="0 0 24 24" fill="#ffffff" stroke="#000000" stroke-width="1.5" stroke-linecap="round" stroke-linejoin="round">
  <!-- Filled brain with black outline to match the tab icon style -->
  <path d="M20.5 11.5c0-3.038-2.462-5.5-5.5-5.5-.913 0-1.765.224-2.5.617A3.5 3.5 0 0 0 8 7.5C6.067 7.5 4.5 9.067 4.5 11c0 .83.333 1.586.87 2.13A3.5 3.5 0 0 0 7 16.5V18c0 1.657 1.567 3 3.5 3 .95 0 1.804-.324 2.5-.86.696.536 1.55.86 2.5.86 1.933 0 3.5-1.343 3.5-3v-1.5c1.02-.03 1.84-.83 1.84-1.85v-1.3c0-1.104-.896-2-2-2h-1.34" />
  <path d="M12 3v3M7 6v2M17 6v2M8.5 10.5h7" />
</svg>
